<svg xmlns="http://www.w3.org/2000/svg" xmlns:xlink="http://www.w3.org/1999/xlink" width="500" zoomAndPan="magnify" viewBox="0 0 375 374.999991" height="500" preserveAspectRatio="xMidYMid meet" version="1.0"><defs><clipPath id="f57544550f"><path d="M 212.824219 91.03125 L 224.453125 91.03125 L 224.453125 102.660156 L 212.824219 102.660156 Z M 212.824219 91.03125 " clip-rule="nonzero"/></clipPath><clipPath id="bb8a26eee6"><path d="M 218.636719 91.03125 C 215.425781 91.03125 212.824219 93.632812 212.824219 96.847656 C 212.824219 100.058594 215.425781 102.660156 218.636719 102.660156 C 221.851562 102.660156 224.453125 100.058594 224.453125 96.847656 C 224.453125 93.632812 221.851562 91.03125 218.636719 91.03125 Z M 218.636719 91.03125 " clip-rule="nonzero"/></clipPath></defs><path fill="#ff4500" d="M 354.132812 233.445312 C 354.132812 214.582031 338.0625 199.910156 318.503906 199.910156 C 298.941406 199.910156 282.871094 215.28125 282.871094 233.445312 C 282.871094 246.019531 289.859375 257.199219 301.035156 262.789062 C 282.171875 281.652344 264.007812 301.910156 256.324219 326.363281 C 257.023438 292.828125 243.746094 264.882812 212.308594 242.527344 C 210.210938 210.390625 189.253906 183.839844 148.035156 159.390625 L 134.757812 153.800781 C 155.71875 125.855469 167.59375 158.691406 180.871094 155.195312 L 205.320312 135.636719 C 208.117188 133.539062 208.816406 133.539062 213.007812 133.539062 C 221.390625 133.539062 220.691406 134.238281 223.488281 127.25 L 240.953125 81.839844 C 243.046875 76.25 243.746094 76.25 248.636719 72.757812 C 255.625 68.566406 256.324219 66.46875 254.226562 62.277344 C 243.746094 44.8125 236.761719 27.34375 218.597656 15.46875 C 173.183594 -12.476562 133.363281 8.480469 124.28125 51.097656 C 115.894531 88.824219 96.335938 106.992188 35.550781 122.359375 C -3.570312 127.949219 -66.449219 155.894531 -48.285156 276.0625 C -65.75 332.652344 -36.40625 333.351562 -39.902344 365.488281 C -39.902344 405.3125 -35.011719 411.597656 -6.367188 436.75 C 4.8125 436.050781 19.484375 433.957031 29.265625 430.460938 C 19.484375 410.898438 15.292969 380.160156 2.714844 357.804688 C -6.367188 342.433594 -7.066406 344.527344 -2.875 327.0625 C 2.714844 304.007812 9.003906 278.15625 13.195312 236.238281 C 17.386719 257.199219 10.402344 287.9375 5.511719 317.980469 C 2.714844 337.542969 4.8125 341.734375 11.796875 359.898438 C 24.375 391.339844 22.976562 413.695312 34.855469 428.367188 C 37.648438 426.96875 40.441406 425.570312 43.238281 424.175781 C 51.621094 419.980469 60.003906 414.394531 67.691406 409.503906 C 77.472656 403.214844 86.554688 396.925781 97.03125 391.339844 C 112.402344 382.953125 127.773438 375.96875 143.839844 371.078125 C 152.226562 357.105469 142.445312 334.050781 144.539062 315.1875 C 146.636719 296.324219 155.71875 300.515625 166.898438 269.074219 C 167.59375 333.351562 212.308594 359.199219 243.050781 372.476562 C 260.515625 380.859375 269.597656 380.160156 277.28125 364.089844 L 327.585938 267.679688 C 342.257812 262.089844 354.132812 248.816406 354.132812 233.445312 Z M 318.503906 226.457031 C 322.695312 226.457031 325.488281 229.253906 325.488281 233.445312 C 325.488281 236.9375 321.996094 240.429688 318.503906 240.429688 C 314.308594 240.429688 311.515625 237.636719 311.515625 233.445312 C 311.515625 229.953125 314.308594 226.457031 318.503906 226.457031 Z M 318.503906 226.457031 " fill-opacity="1" fill-rule="evenodd"/><path fill="#ff4500" d="M 5.511719 -4.792969 C -12.652344 -23.65625 -36.40625 -27.148438 -58.765625 7.785156 C -106.972656 2.894531 -131.421875 17.566406 -139.808594 43.414062 C -148.890625 71.359375 -119.546875 95.8125 -133.519531 118.867188 C -120.945312 126.550781 -113.257812 135.636719 -107.667969 145.414062 C -99.984375 158.691406 -83.21875 142.621094 -75.53125 137.730469 C -71.339844 154.5 -72.738281 169.167969 -92.300781 178.949219 C -138.410156 190.128906 -153.78125 218.074219 -139.109375 262.789062 C -160.066406 287.242188 -162.164062 316.582031 -157.972656 348.023438 C -164.957031 330.554688 -176.835938 313.789062 -193.601562 297.019531 C -188.011719 291.433594 -184.519531 284.445312 -184.519531 276.0625 C -184.519531 259.992188 -198.492188 246.71875 -215.261719 246.71875 C -232.027344 246.71875 -247.398438 259.992188 -247.398438 276.0625 C -247.398438 292.128906 -233.425781 305.40625 -216.65625 305.40625 C -215.960938 305.40625 -215.261719 305.40625 -215.261719 305.40625 L -166.355469 376.667969 C -155.175781 389.941406 -148.191406 385.75 -137.011719 370.378906 C -117.449219 343.132812 -109.066406 312.390625 -111.863281 278.15625 C -89.503906 312.390625 -77.628906 378.0625 -81.820312 425.570312 C -76.230469 426.96875 -69.941406 428.367188 -63.65625 429.761719 C -51.078125 432.558594 -37.804688 434.652344 -24.53125 435.351562 C -47.585938 413.695312 -51.777344 401.816406 -51.777344 364.789062 L -51.777344 363.390625 C -51.078125 356.40625 -51.777344 351.515625 -55.269531 345.226562 C -59.464844 336.144531 -62.957031 329.160156 -65.050781 319.378906 C -67.847656 304.707031 -65.050781 289.335938 -60.859375 275.363281 C -67.148438 233.445312 -65.75 184.539062 -37.804688 149.609375 C -35.011719 146.113281 -32.214844 142.621094 -28.722656 139.828125 C -24.53125 134.9375 -18.941406 130.046875 -13.351562 125.855469 C -41.996094 105.59375 9.003906 65.769531 -39.203125 23.152344 C 0.621094 16.167969 -16.847656 95.113281 41.839844 87.429688 C -0.078125 58.785156 30.660156 21.058594 5.511719 -4.792969 Z M -222.246094 276.0625 C -222.246094 272.570312 -219.453125 270.472656 -215.960938 270.472656 C -212.464844 270.472656 -209.671875 273.265625 -209.671875 276.0625 C -209.671875 279.554688 -212.464844 281.652344 -215.960938 281.652344 C -220.152344 282.351562 -222.246094 279.554688 -222.246094 276.0625 Z M -222.246094 276.0625 " fill-opacity="1" fill-rule="evenodd"/><g clip-path="url(#f57544550f)"><g clip-path="url(#bb8a26eee6)"><path fill="#fdf7f5" d="M 212.824219 91.03125 L 224.453125 91.03125 L 224.453125 102.660156 L 212.824219 102.660156 Z M 212.824219 91.03125 " fill-opacity="1" fill-rule="nonzero"/></g></g></svg>